<?xml version="1.0" encoding="utf-8"?>
<!-- Generator: Adobe Illustrator 15.0.0, SVG Export Plug-In . SVG Version: 6.00 Build 0)  -->
<!DOCTYPE svg PUBLIC "-//W3C//DTD SVG 1.1//EN" "http://www.w3.org/Graphics/SVG/1.1/DTD/svg11.dtd">
<svg version="1.1" id="Layer_1" xmlns="http://www.w3.org/2000/svg" xmlns:xlink="http://www.w3.org/1999/xlink" x="0px" y="0px"
	 width="343.333px" height="300px" viewBox="-23.583 -17.5 343.333 300" enable-background="new -23.583 -17.5 343.333 300"
	 xml:space="preserve">
<path fill="#FFCA5F" d="M159.738-12.147c80.589-5.698,150.541,55.072,156.245,135.74c5.704,80.666-54.999,150.679-135.587,156.378
	C99.81,285.67-4.925,241.091-19.546,144.092C-34.164,47.091,79.149-6.45,159.738-12.147z"/>
<path fill="#F6E5C3" d="M158.359,5.404c71.006-5.02,132.639,48.525,137.666,119.599c5.024,71.074-48.459,132.763-119.462,137.783
	C105.557,267.81,13.277,228.53,0.397,143.063C-12.483,57.599,87.356,10.426,158.359,5.404z"/>
<path fill="#00ADDC" d="M166.002,111.555c0,0-26.394-95.499-32.152-93.252c-5.759,2.247-61.062,112.414-61.062,112.414
	s27.021-3.971,30.062-6.156c3.042-2.185,6.939-13.406,6.939-13.406l30.788-4.63c0,0-0.028,13.587,1.908,14.168
	C144.42,121.275,166.002,111.555,166.002,111.555z"/>
<path fill="#00ADDC" d="M174.707,108.889c2.141,1.378,98.4-32.356,80.816-53.78C237.941,33.685,144.81,19.645,144.81,19.645
	l10.858,28.701l14.339,4.719c0,0,10.497,29.274,10.044,30.762c-0.453,1.488-13.027,2.013-13.027,2.013
	S172.566,107.511,174.707,108.889z"/>
<g>
	<path fill="#00ADDC" d="M112.848,14.803C93.068-11.211,2.791,9.98,2.791,9.98S1.796,39.37,3.929,41.115
		c2.133,1.747,17.276-1.898,17.276-1.898l9.683,40.438c0,0-11.096,10.793-12.53,14.809c-1.433,4.015,14.429,40.058,14.429,40.058
		S132.628,40.817,112.848,14.803z M49.115,71.492c-2.307-1.324-10.237-31.213-7.974-35.692c2.262-4.479,28.442-8.078,36.452-2.278
		C85.601,39.322,51.422,72.817,49.115,71.492z"/>
	<path fill="#FFCA5F" d="M77.593,33.522c-8.01-5.8-34.19-2.201-36.452,2.278c-2.263,4.479,5.667,34.368,7.974,35.692
		C51.422,72.817,85.601,39.322,77.593,33.522z"/>
</g>
<path fill="#FFCA5F" d="M117.308,90.956c0.687,2.755,21.281-1.69,22.617-3.368c1.336-1.678-5.696-26.061-10.935-22.486
	C126.754,66.625,116.621,88.201,117.308,90.956z"/>
<ellipse transform="matrix(-0.0803 -0.9968 0.9968 -0.0803 6.3665 349.7571)" fill="#F15A22" cx="164.542" cy="171.941" rx="45.21" ry="39.226"/>
<ellipse transform="matrix(-0.1879 -0.9822 0.9822 -0.1879 26.5685 365.851)" fill="#FFCA5F" cx="164.536" cy="171.941" rx="20.09" ry="16.711"/>
<ellipse transform="matrix(-0.4332 -0.9013 0.9013 -0.4332 215.2903 439.9509)" fill="#F15A22" cx="245.982" cy="152.28" rx="45.209" ry="39.226"/>
<ellipse transform="matrix(-0.5283 -0.849 0.849 -0.5283 246.6124 441.5892)" fill="#FFCA5F" cx="245.965" cy="152.294" rx="14.905" ry="12.397"/>
<path fill="#FFCA5F" d="M194.857,81.729c-3.238-2.586-7.56-27.759-6.282-29.545c1.276-1.788,33.774,5.446,33.249,12.278
	C221.198,72.604,198.096,84.315,194.857,81.729z"/>
<text transform="matrix(1 0 0 1 146.249 248.0283)" fill="#524FA1" font-family="'Adelle-Bold'" font-size="30.0367">I LOVE YOU</text>
<path fill="#F15A22" d="M13.681,144.223c1.093-2.265,108.287-14.443,113.67-8.988c5.383,5.457-54.377,74.32-50.979,77.445
	c3.4,3.127,47.052-7.242,51.88-4.639c4.827,2.604,16.496,26.131,14.049,30.85c-2.446,4.721-121.706,19.875-119.804,9.215
	c1.903-10.662,60.617-85.907,56.283-87.635c-9.426-3.753-54.752,10.768-54.752,10.768S12.589,146.488,13.681,144.223z"/>
</svg>
